# xmcd CD Database Entry
#
# Track frame offsets:
# 225
# 16870
# 33258
# 48531
# 80791
# 97827
# 108752
# 115634
# 136203
# 151448
# 175849
# 197857
# 210585
#
# Disc length: 3034 seconds
#
# Revision: 1
# Processed by: cddbd v1.4PL0 Copyright (c) Steve Scherf et al.
# Submitted via: tcd 2.0b
#
DISCID=a00bd70d
DTITLE=La Banda de la Luna Azul - Lástima el Marabú
DYEAR=1900
DGENRE=
TTITLE0=Montevideo en tus ojos
TTITLE1=Apuntes extraídos de una fiesta
TTITLE2=Ese brillo
TTITLE3=Tan extraño
TTITLE4=Lástima el marabú
TTITLE5=Siénteme
TTITLE6=Luna azul
TTITLE7=Ritmo
TTITLE8=Fuego
TTITLE9=Una más
TTITLE10=Algunas respuestas
TTITLE11=No estuvo mal
TTITLE12=Muñequita
EXTD=
EXTT0=
EXTT1=
EXTT2=
EXTT3=
EXTT4=
EXTT5=
EXTT6=
EXTT7=
EXTT8=
EXTT9=
EXTT10=
EXTT11=
EXTT12=
PLAYORDER=
